<svg width="25" height="24" viewBox="0 0 25 24" fill="none" xmlns="http://www.w3.org/2000/svg">
<path d="M18.2354 20.8332C18.131 20.8333 18.0278 20.8119 17.9327 20.7705C17.8376 20.7291 17.7528 20.6687 17.6841 20.5932L15.3438 18.0259C14.4014 18.2588 13.4321 18.3761 12.459 18.3751C9.86475 18.3751 7.41602 17.5642 5.56787 16.0946C3.68164 14.5946 2.64258 12.5861 2.64258 10.442C2.64258 8.29793 3.68359 6.29074 5.56787 4.7898C7.41602 3.32027 9.86475 2.51074 12.459 2.51074C15.0532 2.51074 17.502 3.32027 19.3486 4.7898C21.2349 6.2898 22.2734 8.2984 22.2734 10.442C22.2734 12.7304 21.0737 14.8764 18.9678 16.382V20.132C18.9678 20.3185 18.8906 20.4973 18.7533 20.6292C18.6159 20.761 18.4296 20.8351 18.2354 20.8351V20.8332ZM15.5903 16.5264C15.6947 16.5263 15.7979 16.5477 15.893 16.5891C15.9881 16.6305 16.0728 16.691 16.1416 16.7664L17.5029 18.2593V16.0206C17.5031 15.906 17.5324 15.7932 17.5883 15.692C17.6442 15.5908 17.725 15.5042 17.8237 15.4398C19.7222 14.1934 20.8105 12.3718 20.8105 10.442C20.8105 6.84434 17.0649 3.91699 12.4609 3.91699C7.85693 3.91699 4.11133 6.84434 4.11133 10.442C4.11133 14.0396 7.85498 16.9689 12.459 16.9689C13.4474 16.971 14.4307 16.8326 15.377 16.5582C15.446 16.5375 15.518 16.5268 15.5903 16.5264Z" fill="#F76B24"/>
<path d="M9.83838 12.3752C9.81445 12.3752 9.78955 12.3752 9.7666 12.3719C9.74365 12.3686 9.71777 12.3658 9.69531 12.3616C9.67285 12.3574 9.64648 12.3513 9.62598 12.3447C9.60547 12.3382 9.58008 12.3302 9.55811 12.3213C9.53613 12.3124 9.51465 12.3025 9.49365 12.2918C9.47238 12.281 9.45168 12.2693 9.43164 12.2566C9.41211 12.2439 9.39258 12.2304 9.37402 12.2158C9.35547 12.2013 9.3374 12.1854 9.32031 12.1689C9.30322 12.1525 9.28711 12.1352 9.27148 12.1174C9.25586 12.0996 9.24219 12.0808 9.229 12.0621C9.21576 12.0428 9.20354 12.023 9.19238 12.0025C9.18099 11.9822 9.17074 11.9616 9.16162 11.9407C9.15249 11.9195 9.1445 11.8979 9.1377 11.876C9.13041 11.854 9.12454 11.8316 9.12012 11.8089C9.11511 11.7865 9.11152 11.7638 9.10938 11.741C9.10686 11.7179 9.10555 11.6948 9.10547 11.6716C9.10554 11.6486 9.10684 11.6256 9.10938 11.6027C9.11422 11.5568 9.12371 11.5114 9.1377 11.4672C9.1445 11.4453 9.15249 11.4237 9.16162 11.4025C9.17106 11.3816 9.18132 11.361 9.19238 11.3407C9.20354 11.3202 9.21576 11.3004 9.229 11.2811C9.24219 11.2624 9.25635 11.2436 9.27148 11.2258C9.28662 11.208 9.30322 11.1907 9.32031 11.1743C9.3374 11.1579 9.35547 11.1424 9.37402 11.1274C9.39258 11.1124 9.41211 11.0993 9.43164 11.0866C9.45157 11.0737 9.47228 11.062 9.49365 11.0514C9.51481 11.0408 9.5363 11.031 9.55811 11.0219C9.58027 11.0129 9.60293 11.0051 9.62598 10.9985C9.64844 10.9919 9.67188 10.9863 9.69531 10.9816C9.71875 10.9769 9.74414 10.9736 9.7666 10.9713C9.81449 10.9666 9.86275 10.9666 9.91064 10.9713C9.93408 10.9736 9.95947 10.9774 9.98145 10.9816C10.0034 10.9858 10.0303 10.9919 10.0513 10.9985C10.0741 11.0052 10.0966 11.013 10.1187 11.0219C10.1406 11.0308 10.1626 11.0407 10.1836 11.0514C10.2048 11.0621 10.2253 11.0738 10.2451 11.0866C10.265 11.0992 10.2843 11.1129 10.3027 11.1274C10.3213 11.1419 10.3394 11.1579 10.3564 11.1743C10.3735 11.1907 10.3896 11.208 10.4053 11.2258C10.4209 11.2436 10.4346 11.2624 10.4478 11.2811C10.461 11.3004 10.4732 11.3202 10.4844 11.3407C10.4954 11.361 10.5057 11.3816 10.5151 11.4025C10.5244 11.4236 10.5322 11.4457 10.5396 11.4672C10.5469 11.4888 10.5522 11.5141 10.5571 11.5343C10.5667 11.5795 10.5714 11.6255 10.5713 11.6716C10.5714 11.6948 10.5702 11.7179 10.5679 11.741C10.5655 11.7638 10.5619 11.7865 10.5571 11.8089C10.5522 11.8314 10.5464 11.8558 10.5396 11.876C10.5327 11.8961 10.5244 11.9196 10.5151 11.9407C10.5059 11.9618 10.4956 11.9824 10.4844 12.0025C10.4732 12.023 10.461 12.0428 10.4478 12.0621C10.4346 12.0808 10.4204 12.0996 10.4053 12.1174C10.3901 12.1352 10.3735 12.1525 10.3564 12.1689C10.3394 12.1854 10.3213 12.2008 10.3027 12.2158C10.2843 12.2303 10.265 12.244 10.2451 12.2566C10.2249 12.2691 10.2044 12.2808 10.1836 12.2918C10.1626 12.3025 10.1406 12.3124 10.1187 12.3213C10.0967 12.3302 10.0737 12.3377 10.0513 12.3447C10.0288 12.3518 10.0049 12.3569 9.98145 12.3616C9.95801 12.3663 9.93262 12.3696 9.91064 12.3719C9.88867 12.3743 9.86328 12.3752 9.83838 12.3752Z" fill="#F76B24"/>
<path d="M15.2617 12.375C15.2378 12.375 15.2138 12.3739 15.1899 12.3717C15.166 12.3693 15.1411 12.3656 15.1187 12.3614C15.0962 12.3571 15.0698 12.351 15.0493 12.3445C15.0288 12.3379 15.0039 12.33 14.9819 12.321C14.96 12.3121 14.938 12.3023 14.917 12.2915C14.8749 12.2698 14.835 12.2444 14.7979 12.2156C14.7793 12.201 14.7612 12.1851 14.7446 12.1687C14.7275 12.1523 14.7112 12.1351 14.6958 12.1171C14.6807 12.0993 14.666 12.0806 14.6528 12.0618C14.6396 12.0426 14.6274 12.0227 14.6162 12.0023C14.6051 11.982 14.5949 11.9614 14.5854 11.9404C14.5767 11.9193 14.5684 11.8973 14.5615 11.8757C14.5542 11.8538 14.5484 11.8314 14.5439 11.8087C14.5345 11.7635 14.5296 11.7175 14.5293 11.6714C14.5294 11.6482 14.5307 11.625 14.5332 11.602C14.5356 11.5792 14.5392 11.5565 14.5439 11.534C14.5484 11.5113 14.5542 11.489 14.5615 11.467C14.5684 11.4454 14.5767 11.4234 14.5854 11.4023C14.5942 11.3812 14.605 11.3606 14.6162 11.3404C14.6274 11.32 14.6396 11.3001 14.6528 11.2809C14.666 11.2621 14.6807 11.2434 14.6958 11.2256C14.7112 11.2076 14.7275 11.1904 14.7446 11.174C14.7612 11.1581 14.7793 11.1421 14.7979 11.1271C14.8351 11.0983 14.8752 11.0728 14.9175 11.0512C14.9385 11.0404 14.96 11.0306 14.9824 11.0217C15.0049 11.0128 15.0269 11.0053 15.0498 10.9982C15.0728 10.9912 15.0957 10.986 15.1191 10.9814C15.1426 10.9767 15.168 10.9734 15.1904 10.971C15.2392 10.9667 15.2882 10.9667 15.3369 10.971C15.3604 10.9734 15.3857 10.9771 15.4077 10.9814C15.4297 10.9856 15.4565 10.9917 15.4775 10.9982C15.4985 11.0048 15.5229 11.0128 15.5449 11.0217C15.5669 11.0306 15.5889 11.0404 15.6099 11.0512C15.6309 11.062 15.6514 11.0737 15.6714 11.0864C15.6914 11.0989 15.7106 11.1125 15.729 11.1271C15.7476 11.1417 15.7656 11.1576 15.7827 11.174C15.7998 11.1904 15.8159 11.2078 15.8315 11.2256C15.8472 11.2434 15.8608 11.2621 15.874 11.2809C15.8874 11.3001 15.8998 11.32 15.9111 11.3404C15.9219 11.3606 15.9326 11.3812 15.9414 11.4023C15.9507 11.4234 15.9588 11.445 15.9658 11.467C15.9727 11.489 15.9785 11.5139 15.9834 11.534C15.9883 11.5542 15.9917 11.5809 15.9941 11.602C15.9965 11.625 15.9976 11.6482 15.9976 11.6714C15.9976 11.6944 15.9965 11.7174 15.9941 11.7403C15.9917 11.7632 15.9878 11.7871 15.9834 11.8087C15.979 11.8303 15.9727 11.8556 15.9658 11.8757C15.9588 11.8977 15.9507 11.9193 15.9414 11.9404C15.9326 11.9615 15.9219 11.9821 15.9111 12.0023C15.8998 12.0227 15.8874 12.0426 15.874 12.0618C15.8608 12.0806 15.8467 12.0993 15.8315 12.1171C15.8164 12.135 15.7998 12.1523 15.7827 12.1687C15.7656 12.1851 15.7476 12.2006 15.729 12.2156C15.7106 12.2302 15.6914 12.2438 15.6714 12.2564C15.6515 12.2689 15.631 12.2806 15.6099 12.2915C15.5889 12.3023 15.5669 12.3121 15.5449 12.321C15.5229 12.33 15.5 12.3375 15.4775 12.3445C15.4551 12.3515 15.4312 12.3567 15.4077 12.3614C15.3843 12.366 15.3589 12.3693 15.3369 12.3717C15.3119 12.374 15.2868 12.3751 15.2617 12.375Z" fill="#F76B24"/>
<path d="M12.5494 12.3748C12.3552 12.3743 12.1691 12.3004 12.0313 12.169C12.0142 12.1526 11.9979 12.1354 11.9825 12.1175C11.9674 12.0997 11.9532 12.0809 11.9395 12.0622C11.9259 12.0434 11.9142 12.0233 11.9029 12.0026C11.8917 11.9826 11.8815 11.9619 11.8727 11.9408C11.8634 11.9196 11.8552 11.898 11.8482 11.8761C11.8414 11.854 11.8355 11.8292 11.8307 11.809C11.8259 11.7866 11.8223 11.7639 11.8199 11.7411C11.8152 11.6943 11.8152 11.6472 11.8199 11.6004C11.8223 11.5776 11.8259 11.5549 11.8307 11.5325C11.8355 11.51 11.8414 11.4856 11.8482 11.4654C11.8552 11.4435 11.8634 11.4219 11.8727 11.4008C11.8815 11.3796 11.8917 11.359 11.9029 11.3389C11.9142 11.3183 11.9269 11.2986 11.9395 11.2793C11.9522 11.2601 11.9674 11.2418 11.9825 11.224C11.9979 11.2061 12.0142 11.1889 12.0313 11.1725C12.1082 11.0993 12.2009 11.0432 12.3028 11.0082C12.4047 10.9732 12.5134 10.9601 12.6212 10.97C12.6451 10.9723 12.67 10.9761 12.6925 10.9803C12.7149 10.9845 12.7389 10.9906 12.7618 10.9972C12.7848 11.0037 12.8072 11.0117 12.8292 11.0206C12.8512 11.0295 12.8731 11.0393 12.8941 11.0501C12.9364 11.0718 12.9765 11.0972 13.0138 11.1261C13.0323 11.1406 13.0504 11.1565 13.067 11.1729C13.0842 11.1893 13.1005 11.2065 13.1158 11.2245C13.131 11.2423 13.1456 11.2611 13.1588 11.2798C13.172 11.2991 13.1843 11.3189 13.1954 11.3393C13.2065 11.3597 13.2167 11.3803 13.2262 11.4012C13.235 11.4223 13.2433 11.4443 13.2501 11.4659C13.2574 11.4879 13.2632 11.5103 13.2677 11.5329C13.2724 11.5554 13.276 11.5781 13.2784 11.6009C13.2838 11.6476 13.2838 11.6948 13.2784 11.7415C13.276 11.7644 13.2724 11.787 13.2677 11.8095C13.2632 11.8322 13.2574 11.8546 13.2501 11.8765C13.2433 11.8981 13.235 11.9201 13.2262 11.9412C13.2174 11.9623 13.2066 11.9829 13.1954 12.0031C13.1843 12.0235 13.172 12.0434 13.1588 12.0626C13.1456 12.0814 13.131 12.1001 13.1158 12.1179C13.1005 12.1359 13.0842 12.1531 13.067 12.1695C13.0504 12.1854 13.0323 12.2009 13.0138 12.2164C12.9765 12.2453 12.9364 12.2707 12.8941 12.2923C12.8731 12.3031 12.8512 12.3129 12.8292 12.3218C12.8072 12.3308 12.7848 12.3383 12.7618 12.3453C12.7389 12.3523 12.713 12.3575 12.6925 12.3622C12.672 12.3668 12.6436 12.3701 12.6212 12.3725C12.5973 12.3744 12.5734 12.3752 12.5494 12.3748Z" fill="#F76B24"/>
</svg>
