<svg width="24" height="24" viewBox="0 0 24 24" fill="none" xmlns="http://www.w3.org/2000/svg">
<path d="M20.6777 7.80566H3.24023C3.05375 7.80566 2.87491 7.73158 2.74305 7.59972C2.61119 7.46786 2.53711 7.28902 2.53711 7.10254C2.53711 6.91606 2.61119 6.73722 2.74305 6.60535C2.87491 6.47349 3.05375 6.39941 3.24023 6.39941H20.6777C20.8642 6.39941 21.0431 6.47349 21.1749 6.60535C21.3068 6.73722 21.3809 6.91606 21.3809 7.10254C21.3809 7.28902 21.3068 7.46786 21.1749 7.59972C21.0431 7.73158 20.8642 7.80566 20.6777 7.80566Z" fill="black"/>
<path d="M20.6777 13.1123H3.24023C3.05375 13.1123 2.87491 13.0382 2.74305 12.9064C2.61119 12.7745 2.53711 12.5957 2.53711 12.4092C2.53711 12.2227 2.61119 12.0439 2.74305 11.912C2.87491 11.7801 3.05375 11.7061 3.24023 11.7061H20.6777C20.8642 11.7061 21.0431 11.7801 21.1749 11.912C21.3068 12.0439 21.3809 12.2227 21.3809 12.4092C21.3809 12.5957 21.3068 12.7745 21.1749 12.9064C21.0431 13.0382 20.8642 13.1123 20.6777 13.1123Z" fill="black"/>
<path d="M20.6777 18.4182H3.24023C3.05375 18.4182 2.87491 18.3441 2.74305 18.2123C2.61119 18.0804 2.53711 17.9016 2.53711 17.7151C2.53711 17.5286 2.61119 17.3498 2.74305 17.2179C2.87491 17.086 3.05375 17.012 3.24023 17.012H20.6777C20.8642 17.012 21.0431 17.086 21.1749 17.2179C21.3068 17.3498 21.3809 17.5286 21.3809 17.7151C21.3809 17.9016 21.3068 18.0804 21.1749 18.2123C21.0431 18.3441 20.8642 18.4182 20.6777 18.4182Z" fill="black"/>
</svg>
