<svg width="24" height="24" viewBox="0 0 24 24" fill="none" xmlns="http://www.w3.org/2000/svg">
<path d="M16.3482 21.0966C15.6149 21.0912 14.8849 20.9991 14.1732 20.8224C11.7155 20.2294 9.18474 18.7252 7.04818 16.5868C4.91162 14.4483 3.40552 11.9171 2.81255 9.46177C2.18818 6.87896 2.63349 4.66927 4.06506 3.23771L4.47381 2.82896C4.84466 2.45884 5.3472 2.25098 5.87115 2.25098C6.39509 2.25098 6.89764 2.45884 7.26849 2.82896L9.6174 5.17739C9.98774 5.54813 10.1958 6.05072 10.1958 6.57474C10.1958 7.09876 9.98774 7.60135 9.6174 7.97208L8.2299 9.35911C8.89505 10.5263 9.79974 11.6944 10.869 12.7636C11.9382 13.8329 13.1072 14.738 14.274 15.4032L15.661 14.0157C15.8445 13.8321 16.0623 13.6865 16.3021 13.5872C16.5418 13.4879 16.7988 13.4367 17.0583 13.4367C17.3179 13.4367 17.5748 13.4879 17.8146 13.5872C18.0544 13.6865 18.2722 13.8321 18.4557 14.0157L20.8041 16.3641C21.1745 16.7347 21.3826 17.2372 21.3826 17.7612C21.3826 18.2852 21.1745 18.7877 20.8041 19.1583L20.3949 19.5671C19.3857 20.5782 17.9888 21.0966 16.3482 21.0966ZM5.87115 3.6563C5.79631 3.65593 5.72214 3.6705 5.653 3.69915C5.58386 3.72781 5.52113 3.76997 5.46849 3.82317L5.05927 4.23192C3.98724 5.30396 3.67412 7.04442 4.17755 9.12989C4.71052 11.3391 6.08255 13.6346 8.04052 15.5921C9.99849 17.5496 12.2935 18.9202 14.5032 19.455C16.5891 19.9585 18.3286 19.6454 19.4007 18.5733L19.8094 18.1646C19.9162 18.0577 19.9762 17.9128 19.9762 17.7617C19.9762 17.6106 19.9162 17.4657 19.8094 17.3588L17.4615 15.0104C17.3546 14.9036 17.2097 14.8436 17.0586 14.8436C16.9075 14.8436 16.7626 14.9036 16.6557 15.0104L14.8974 16.7686C14.7919 16.8742 14.6555 16.9435 14.5081 16.9664C14.3606 16.9893 14.2097 16.9647 14.0771 16.8961C12.6357 16.1508 11.1826 15.0657 9.87474 13.7579C8.56693 12.45 7.48412 10.9979 6.73693 9.55646C6.66831 9.42394 6.64364 9.27302 6.66648 9.12555C6.68931 8.97808 6.75848 8.8417 6.86396 8.73614L8.62271 6.97786C8.72951 6.87098 8.7895 6.72607 8.7895 6.57497C8.7895 6.42388 8.72951 6.27896 8.62271 6.17208L6.27427 3.82317C6.22147 3.77006 6.15864 3.72796 6.08944 3.69932C6.02024 3.67067 5.94604 3.65605 5.87115 3.6563V3.6563Z" fill="#F76B24"/>
<path d="M17.0996 12.643C16.9131 12.643 16.7343 12.569 16.6024 12.4371C16.4706 12.3052 16.3965 12.1264 16.3965 11.9399C16.3951 10.7064 15.9045 9.52382 15.0324 8.65156C14.1602 7.7793 12.9776 7.2886 11.7441 7.28711C11.5577 7.28711 11.3788 7.21303 11.247 7.08117C11.1151 6.94931 11.041 6.77046 11.041 6.58398C11.041 6.3975 11.1151 6.21866 11.247 6.0868C11.3788 5.95494 11.5577 5.88086 11.7441 5.88086C15.0849 5.88086 17.8027 8.59961 17.8027 11.9399C17.8027 12.1264 17.7287 12.3052 17.5968 12.4371C17.4649 12.569 17.2861 12.643 17.0996 12.643Z" fill="#F76B24"/>
<path d="M20.0715 12.6442C19.885 12.6442 19.7062 12.5701 19.5743 12.4383C19.4424 12.3064 19.3684 12.1276 19.3684 11.9411C19.3684 7.73687 15.9465 4.31641 11.7441 4.31641C11.5577 4.31641 11.3788 4.24233 11.247 4.11047C11.1151 3.9786 11.041 3.79976 11.041 3.61328C11.041 3.4268 11.1151 3.24796 11.247 3.1161C11.3788 2.98424 11.5577 2.91016 11.7441 2.91016C16.7237 2.91016 20.7746 6.96156 20.7746 11.9411C20.7746 12.1276 20.7005 12.3064 20.5687 12.4383C20.4368 12.5701 20.258 12.6442 20.0715 12.6442Z" fill="#F76B24"/>
</svg>
