<svg width="108" height="108" viewBox="0 0 108 108" fill="none" xmlns="http://www.w3.org/2000/svg">
<path d="M48.5155 93.6562C42.242 93.6543 36.0584 92.164 30.4728 89.3077C24.8872 86.4514 20.0589 82.3107 16.3846 77.2257C12.7104 72.1407 10.295 66.2566 9.33682 60.0566C8.37868 53.8567 8.90515 47.5179 10.873 41.5609C12.8408 35.604 16.1939 30.1989 20.6567 25.7898C25.1195 21.3806 30.5647 18.0932 36.545 16.1975C42.5253 14.3018 48.87 13.852 55.0579 14.8851C61.2458 15.9181 67.1003 18.4045 72.1405 22.14C72.8151 22.6881 73.2521 23.4754 73.3607 24.3378C73.4692 25.2001 73.2409 26.0712 72.7232 26.7694C72.2055 27.4676 71.4385 27.9391 70.5817 28.0858C69.725 28.2325 68.8447 28.0431 68.1243 27.5569C62.1753 23.1401 54.9103 20.8592 47.5044 21.083C40.0984 21.3067 32.9844 24.0221 27.3129 28.7899C21.6414 33.5578 17.744 40.0993 16.2509 47.3566C14.7578 54.614 15.7564 62.1628 19.0852 68.7823C22.4139 75.4018 27.8782 80.7049 34.5944 83.8341C41.3105 86.9632 48.8858 87.7354 56.0952 86.0258C63.3046 84.3162 69.7266 80.2247 74.3226 74.4131C78.9185 68.6014 81.4198 61.4093 81.4218 54C81.4169 52.2648 81.2759 50.5326 80.9999 48.8194C80.9312 48.3762 80.9505 47.9238 81.0566 47.488C81.1627 47.0522 81.3537 46.6416 81.6185 46.2797C81.8833 45.9177 82.2168 45.6114 82.6 45.3784C82.9832 45.1453 83.4086 44.99 83.8518 44.9213C84.295 44.8526 84.7474 44.8718 85.1831 44.978C85.6189 45.0841 86.0295 45.275 86.3915 45.5399C86.7534 45.8047 87.0597 46.1382 87.2928 46.5214C87.5259 46.9046 87.6812 47.3299 87.7499 47.7731C88.0515 49.8347 88.1925 51.9166 88.1718 54C88.1628 64.5148 83.9819 74.5963 76.5469 82.0313C69.1118 89.4664 59.0303 93.6473 48.5155 93.6562Z" fill="#F76B24"/>
<path d="M52.7344 66.6562C51.8407 66.6525 50.985 66.2944 50.355 65.6606L34.3238 49.6294C33.7708 48.9837 33.4819 48.1532 33.5147 47.3038C33.5475 46.4544 33.8997 45.6487 34.5007 45.0476C35.1018 44.4465 35.9075 44.0944 36.7569 44.0616C37.6064 44.0288 38.4369 44.3177 39.0825 44.8706L52.7344 58.5056L93.3862 17.8706C94.0319 17.3177 94.8624 17.0288 95.7118 17.0616C96.5612 17.0944 97.367 17.4465 97.968 18.0476C98.5691 18.6487 98.9212 19.4544 98.954 20.3038C98.9868 21.1532 98.6979 21.9837 98.145 22.6294L55.1138 65.6606C54.4837 66.2944 53.628 66.6525 52.7344 66.6562Z" fill="#10A304"/>
</svg>
