<svg width="11" height="11" viewBox="0 0 11 11" fill="none" xmlns="http://www.w3.org/2000/svg">
<path d="M5.93086 5.05518L10.5326 0.453455C10.6363 0.349728 10.6363 0.181555 10.5326 0.0778281C10.4288 -0.0258985 10.2607 -0.0258985 10.1569 0.0778281L5.5552 4.67952L0.95348 0.0777949C0.849753 -0.0259316 0.68158 -0.0259316 0.577853 0.0777949C0.474093 0.181521 0.474093 0.349695 0.577853 0.453422L5.17954 5.05518L0.57782 9.6569C0.47406 9.76066 0.47406 9.9288 0.57782 10.0326C0.629683 10.0844 0.69765 10.1104 0.76565 10.1104C0.83365 10.1104 0.901617 10.0844 0.95348 10.0326L5.5552 5.43084L10.1569 10.0326C10.2088 10.0844 10.2768 10.1104 10.3448 10.1104C10.4128 10.1104 10.4807 10.0844 10.5326 10.0326C10.6363 9.9288 10.6363 9.76066 10.5326 9.6569L5.93086 5.05518Z" fill="#F76B24"/>
</svg>
