<svg width="18" height="24" viewBox="0 0 18 24" fill="none" xmlns="http://www.w3.org/2000/svg">
<path d="M2.19496 0.861059L16.2498 11.0383C16.8164 11.4486 16.8164 12.4745 16.2498 12.8848L2.19496 23.0621C1.6284 23.4724 0.919922 22.9594 0.919922 22.1388V1.78431C0.919922 0.963744 1.62803 0.450774 2.19496 0.861059Z" fill="black"/>
<path d="M16.2491 11.0385L2.19424 0.861245C2.10946 0.80009 2.02176 0.765405 1.9337 0.743042L15.5213 10.5821C16.0879 10.9924 16.0879 12.0184 15.5213 12.4286L1.46648 22.6059C1.33949 22.6976 1.20594 22.7373 1.07422 22.7433C1.31292 23.1714 1.78779 23.3562 2.19424 23.0623L16.2491 12.885C16.8157 12.4747 16.8157 11.4488 16.2491 11.0385Z" fill="black"/>
<path d="M2.19496 0.861059L16.2498 11.0383C16.8164 11.4486 16.8164 12.4745 16.2498 12.8848L2.19496 23.0621C1.6284 23.4724 0.919922 22.9594 0.919922 22.1388V1.78431C0.919922 0.963744 1.62803 0.450774 2.19496 0.861059Z" stroke="black" stroke-miterlimit="10"/>
</svg>
