<svg width="21" height="21" viewBox="0 0 21 21" fill="none" xmlns="http://www.w3.org/2000/svg">
<path d="M11.9663 12.6369C13.1172 12.6369 14.221 12.1797 15.0348 11.3659C15.8486 10.5521 16.3058 9.44836 16.3058 8.29746C16.3058 7.14657 15.8486 6.04281 15.0348 5.229C14.221 4.4152 13.1172 3.95801 11.9663 3.95801H5.57812V5.27051H7.21641V11.3244H5.57812V12.6369H7.21641V14.4375H5.57812V15.75H7.21641V18.0469H8.52891V15.75H12.4688V14.4375H8.52891V12.6369H11.9663ZM8.52891 5.27051H11.9663C12.3638 5.27051 12.7574 5.3488 13.1247 5.50092C13.4919 5.65304 13.8256 5.876 14.1067 6.15708C14.3878 6.43816 14.6107 6.77185 14.7628 7.1391C14.915 7.50634 14.9933 7.89996 14.9933 8.29746C14.9933 8.69497 14.915 9.08858 14.7628 9.45583C14.6107 9.82307 14.3878 10.1568 14.1067 10.4378C13.8256 10.7189 13.4919 10.9419 13.1247 11.094C12.7574 11.2461 12.3638 11.3244 11.9663 11.3244H8.52891V5.27051Z" fill="black"/>
</svg>
